<?xml version="1.0" standalone="no"?><!DOCTYPE svg PUBLIC "-//W3C//DTD SVG 1.1//EN" "http://www.w3.org/Graphics/SVG/1.1/DTD/svg11.dtd"><svg t="1538659434226" class="icon" style="" viewBox="0 0 1024 1024" version="1.1" xmlns="http://www.w3.org/2000/svg" p-id="2204" xmlns:xlink="http://www.w3.org/1999/xlink" width="32" height="32"><defs><style type="text/css"></style></defs><path d="M745.795714 636.944C825.047144 517.5 813.321432 354.48 708.767143 249.232 590.584286 130.256 398.91 130.256 280.675714 249.232 162.441429 368.208 162.441429 561.076 280.675714 680.052 385.281429 785.3 547.178571 797.052 665.052857 715.984 665.412857 716.4 768.440484 823.446456 768.440484 823.446456 783.762174 839.366568 808.83012 839.550504 824.43572 823.85284L847.747136 800.403904C863.35076 784.708233 863.515464 759.036136 848.227616 743.180462L745.795714 636.944ZM671.776342 642.815187C574.014865 741.11527 415.484203 741.11527 317.668565 642.815187 219.907087 544.405578 219.907087 384.88015 317.668565 286.525303 415.484203 188.115694 574.014865 188.115694 671.776342 286.47054 769.483658 384.88015 769.483658 544.405578 671.776342 642.815187L671.776342 642.815187Z" p-id="2205" fill="#66757f"></path></svg>